HIERARCHY
ROOT Hips
{
    OFFSET 0.000000 0.000000 0.000000
    CHANNELS 6 Xposition Yposition Zposition Zrotation Xrotation Yrotation
        JOINT Spine1
        {
            OFFSET -0.000000 23.269398 0.000000
            CHANNELS 3 Zrotation Xrotation Yrotation
            JOINT Neck
            {
                OFFSET -0.000000 18.032967 0.000000
                CHANNELS 3 Zrotation Xrotation Yrotation
                JOINT Head
                {
                    OFFSET -0.000000 13.091072 1.689171
                    CHANNELS 3 Zrotation Xrotation Yrotation
                    End Site
                    {
                        OFFSET -0.000000 16.891708 0.000000
                    }
                }
            }
            JOINT LeftShoulder
            {
                OFFSET 3.336773 14.146137 -0.012206
                CHANNELS 3 Zrotation Xrotation Yrotation
                JOINT LeftArm
                {
                    OFFSET 11.765518 0.000000 0.000000
                    CHANNELS 3 Zrotation Xrotation Yrotation
                    JOINT LeftForeArm
                    {
                        OFFSET 25.163450 0.000000 0.000000
                        CHANNELS 3 Zrotation Xrotation Yrotation
                        JOINT LeftHand
                        {
                            OFFSET 21.783554 0.000000 0.000000
                            CHANNELS 3 Zrotation Xrotation Yrotation
                            End Site
                            {
                                OFFSET 12.668781 0.000000 0.000000
                            }
                        }
                    }
                }
            }
            JOINT RightShoulder
            {
                OFFSET -3.409204 14.146137 -0.012206
                CHANNELS 3 Zrotation Xrotation Yrotation
                JOINT RightArm
                {
                    OFFSET -11.765518 0.000000 0.000000
                    CHANNELS 3 Zrotation Xrotation Yrotation
                    JOINT RightForeArm
                    {
                        OFFSET -25.163450 0.000000 0.000000
                        CHANNELS 3 Zrotation Xrotation Yrotation
                        JOINT RightHand
                        {
                            OFFSET -21.783554 0.000000 0.000000
                            CHANNELS 3 Zrotation Xrotation Yrotation
                            End Site
                            {
                                OFFSET -12.668781 0.000000 0.000000
                            }
                        }
                    }
                }
            }
        }
        JOINT LeftUpLeg
    {
        OFFSET 8.445854 0.000000 0.000000
        CHANNELS 3 Zrotation Xrotation Yrotation
        JOINT LeftLeg
        {
            OFFSET -0.000000 -40.674755 0.000000
            CHANNELS 3 Zrotation Xrotation Yrotation
            JOINT LeftFoot
            {
                OFFSET -0.000000 -37.111794 0.000000
                CHANNELS 3 Zrotation Xrotation Yrotation
                JOINT LeftToeBase
                {
                    OFFSET -0.000000 -5.489805 12.668781
                    CHANNELS 3 Zrotation Xrotation Yrotation
                    End Site
                    {
                        OFFSET -0.000000 0.000000 3.378341
                    }
                }
            }
        }
    }
    JOINT RightUpLeg
    {
        OFFSET -8.445854 0.000000 0.000000
        CHANNELS 3 Zrotation Xrotation Yrotation
        JOINT RightLeg
        {
            OFFSET -0.000000 -40.674755 0.000000
            CHANNELS 3 Zrotation Xrotation Yrotation
            JOINT RightFoot
            {
                OFFSET -0.000000 -37.111794 0.000000
                CHANNELS 3 Zrotation Xrotation Yrotation
                JOINT RightToeBase
                {
                    OFFSET -0.000000 -5.489805 12.668781
                    CHANNELS 3 Zrotation Xrotation Yrotation
                    End Site
                    {
                        OFFSET -0.000000 0.000000 3.378341
                    }
                }
            }
        }
    }
}
MOTION
Frames:    11
Frame Time:    0.008333
61.264961    82.972160    117.347572    -3.237209    -2.550340    -72.467323    5.608954    11.254421    -0.469269    3.963129    6.315589    -5.855299    6.134274    -1.566830    -6.007315    -1.061682    9.834694    12.760264    -55.814323    32.873535    -21.564701    3.686712    0.460027    -18.991896    -5.529028    1.304808    -4.717176    -2.173420    9.239202    -4.315955    38.444019    44.474251    36.351414    -5.632811    4.706121    24.047855    -18.806458    4.314452    9.599874    11.552213    -6.297554    -15.694375    -3.451855    22.238676    -10.840564    -14.720116    -12.813835    15.423347    -5.466434    -5.278708    4.757185    -2.423223    3.698330    2.214442    -6.634632    0.234609    -9.808012    4.347582    -5.046546    -0.107057    -2.566808    4.115094    0.508929    
61.330257    82.946724    117.677895    -3.252784    -2.410433    -72.754364    5.586911    11.176196    -0.690627    4.055785    6.190557    -6.016029    6.335735    -1.637975    -6.179471    -1.032764    9.744773    12.674945    -55.416046    33.003540    -21.926596    3.737673    0.405979    -19.006735    -5.670410    1.268015    -4.766291    -2.195718    9.079239    -4.220997    38.851147    44.350285    35.724979    -6.160136    5.482506    24.087351    -17.749685    5.455554    8.582277    11.453782    -5.922135    -14.969544    -3.322317    21.731720    -10.797637    -13.635529    -12.836108    15.403543    -4.718887    -4.188121    4.918043    -2.533839    3.552178    2.304456    -6.653323    0.422720    -9.687203    4.610275    -5.114274    -0.019323    -2.568072    4.116359    0.510415    
61.427235    82.890358    118.019211    -3.190387    -2.408743    -73.048164    5.417154    11.063159    -0.853229    4.086507    6.081680    -6.192871    6.589559    -1.718091    -6.384645    -0.992297    9.661250    12.594729    -55.130013    33.809185    -21.980537    4.606910    0.062965    -19.379217    -4.357666    1.051520    -5.292647    -2.226495    9.100128    -4.235239    39.139011    43.977543    35.457268    -5.819553    5.795732    23.748144    -18.017481    5.631911    8.745790    11.182937    -5.635751    -14.272769    -3.144263    21.370258    -10.703469    -13.196327    -12.863357    15.442011    -4.129202    -3.734435    4.033939    -2.754150    3.307875    2.453734    -6.605408    0.636575    -9.607208    6.769061    -5.441295    -0.094915    -3.038141    5.898972    -0.970839    
61.521729    82.867386    118.336662    -3.160784    -2.274817    -73.321510    5.382619    10.950005    -1.034837    4.159837    5.985078    -6.418738    6.815232    -1.809758    -6.627849    -0.969008    9.578114    12.490225    -54.350185    33.854248    -22.665165    4.088070    -0.143914    -19.446987    -5.571944    0.780093    -4.583877    -2.275327    9.061668    -4.204752    39.723549    43.290478    35.005482    -5.104655    6.131309    23.261482    -17.588329    5.879577    8.416695    11.050510    -5.366018    -13.529603    -2.933746    21.018093    -10.708622    -12.534236    -12.978354    15.341787    -4.084380    -3.553435    4.326666    -2.859144    3.066725    2.607342    -6.662445    0.892236    -9.520889    7.043774    -5.509598    -0.035572    -3.053384    5.893166    -0.921310    
61.549545    82.846916    118.717422    -3.319234    -2.256327    -73.362175    5.292481    11.034279    -1.485910    4.293741    5.861995    -6.695370    6.983143    -1.833000    -6.910547    -0.916384    9.521708    12.403790    -54.024315    33.710930    -23.173502    4.035667    -0.281465    -19.220358    -5.083825    0.552391    -3.379694    -2.282023    9.076986    -4.229736    40.819016    42.564240    34.424583    -5.085824    6.521636    22.367634    -17.296047    6.147659    9.069983    10.758779    -4.871953    -13.016880    -2.578698    20.628677    -10.772027    -11.881069    -13.178226    15.237345    -3.953976    -3.287812    4.534702    -3.053692    3.193838    2.421446    -6.691027    1.013978    -9.352690    7.339392    -5.554781    0.017970    -3.041410    5.854666    -0.895727    
61.740963    82.819221    118.983421    -3.081457    -2.020114    -73.841995    5.287774    10.721288    -1.360332    4.276350    5.797949    -6.927761    7.352709    -1.922136    -7.191949    -0.882103    9.441368    12.269042    -53.665806    33.649300    -23.582729    4.196580    -0.742244    -19.222738    -6.258258    0.248792    -5.115251    -2.326292    9.090174    -4.223990    59.012306    16.998291    32.452957    5.020421    21.729204    4.585731    -23.394594    17.124352    22.321218    10.725814    -4.909426    -12.068896    -2.381567    20.411007    -10.856084    -11.173034    -12.596416    15.029162    -4.624136    -4.169688    4.636941    -3.064049    2.467168    2.804318    -6.830870    1.579037    -9.582701    7.671012    -5.630470    0.402808    -3.050033    5.858856    -0.878891    
61.673279    82.807388    119.410851    -3.485475    -2.112000    -73.850410    5.120631    11.076081    -1.892713    4.346858    5.730750    -7.197446    7.678731    -1.999946    -7.491036    -0.823912    9.336203    12.161899    -53.163750    33.693531    -24.042641    4.220005    -0.257727    -19.424540    -4.840688    0.663089    -4.685877    -2.371806    9.041984    -4.174582    59.213043    17.110268    32.177273    4.721727    21.547697    4.309249    -23.311071    16.979776    22.305222    10.368897    -4.054055    -11.720353    -1.955843    19.982237    -11.149155    -10.735260    -12.782597    15.062576    -4.428297    -3.975209    4.450758    -3.309701    3.008143    2.539132    -6.868258    1.555259    -9.377370    7.965291    -5.706674    0.472925    -3.049569    5.860147    -0.882072    
61.770462    82.785149    119.758881    -3.498317    -2.040910    -74.035210    5.005902    11.036905    -2.111130    4.376538    5.645141    -7.513206    8.026123    -1.997115    -7.853354    -0.703594    9.155911    12.053718    -52.828720    33.706276    -24.399157    4.354418    -0.553240    -20.073059    -5.360039    0.423094    -4.383566    -2.416178    9.031396    -4.143617    59.108505    17.182985    31.928450    4.957939    21.371893    4.249656    -24.142561    16.524300    22.794477    10.104752    -3.762757    -11.208376    -1.847636    19.662180    -11.267654    -9.751551    -13.217706    15.858244    -3.824093    -3.455476    3.699822    -3.466125    2.783504    2.596496    -6.957073    1.812993    -9.280056    8.385094    -4.847967    0.487146    -2.586443    5.020607    -0.861991    
61.875175    82.761406    120.109711    -3.507566    -1.976415    -74.225601    4.883831    11.015678    -2.319050    4.229828    5.467381    -7.814072    8.666809    -1.821935    -8.281370    -0.688306    9.191585    11.918450    -52.343884    33.546276    -24.972769    4.507923    -0.415276    -19.619829    -4.662765    0.562352    -4.848811    -2.418765    9.001214    -4.095029    59.198170    17.367012    31.659184    4.597391    21.126154    4.065540    -24.281834    16.276014    22.734339    9.868283    -3.537987    -10.825319    -1.506249    19.353806    -11.376862    -9.783051    -12.841234    14.984652    -4.404564    -3.773394    4.868268    -3.663234    2.588718    2.631846    -7.117216    2.125452    -9.168962    8.819909    -5.207442    1.086003    -2.559165    5.200644    -1.212969    
62.016106    82.779922    120.425369    -3.461003    -1.715956    -74.474373    4.952343    10.875213    -2.472589    4.350327    5.459621    -8.127241    8.868153    -1.963700    -8.594457    -0.638933    9.097343    11.743319    -51.949966    33.475014    -25.296984    4.613183    -1.078470    -19.744692    -5.455291    -0.018118    -5.392950    -2.464322    8.998173    -4.036308    59.283947    17.297533    31.425909    4.631254    20.777063    3.851575    -23.288956    16.301970    21.873835    9.784650    -3.445962    -10.439311    -1.311196    19.150604    -11.491712    -8.760792    -8.773143    14.028528    -9.757014    -10.158325    7.969925    -3.623092    2.179173    2.913621    -7.198301    2.603132    -9.275740    9.239801    -5.991307    1.179070    -3.350658    6.437404    -0.938268    
62.138176    82.763496    120.776711    -3.454026    -1.652572    -74.668373    4.881788    10.844739    -2.634814    4.267451    5.379327    -8.466643    9.321423    -1.965985    -9.012587    -0.590459    8.998697    11.605003    -51.589474    33.383984    -25.719379    4.694874    -1.236754    -19.943945    -5.155641    -0.163981    -5.478704    -2.510808    9.022307    -3.994796    59.060001    17.382341    31.130020    4.776936    20.602348    4.059706    -23.507612    16.121439    21.612310    9.452041    -3.248368    -10.325236    -1.001349    18.894924    -11.463124    -8.520544    -8.491254    13.994162    -10.065404    -10.551895    8.108688    -3.784666    1.950540    3.033564    -7.292140    2.911451    -9.275221    9.564044    -6.203228    1.290878    -3.511281    6.699021    -0.899071    
